# xmcd
#
# Track frame offsets: 
#        150
#        3290
#        23112
#        31695
#        44300
#        46832
#        55817
#        57620
#        71420
#        73457
#        90562
#        96752
#        112525
#        115087
#        132792
#        134330
#        151745
#        153405
#        169685
#        171582
#        190537
#        197950
#        215997
#        218837
#        229990
#
# Disc length: 3112 seconds
#
# Revision: 3
# Processed by: cddbd v1.5.2PL0 Copyright (c) Steve Scherf et al.
# Submitted via: ExactAudioCopy v0.99pb5
#
DISCID=5a0c2619
DTITLE=Various Artist - Century 21 Gold Disc 3 Demo
DYEAR=1990
DGENRE=Pop
TTITLE0=Talk - Talk
TTITLE1=Steve Winwood - Higher Love
TTITLE2=Talk - Talk
TTITLE3=Beatles - Day Tripper
TTITLE4=Talk - Talk
TTITLE5=Chris Kenner - I Like It Like That
TTITLE6=Talk - Talk
TTITLE7=Rolling Stones - Honky Tonk Women
TTITLE8=Talk - Talk
TTITLE9=Miami Sound Machine - Bad Boy
TTITLE10=Talk - Talk
TTITLE11=Exile - Kiss You All Over
TTITLE12=Talk - Talk
TTITLE13=Seals And Crofts - Get Closer
TTITLE14=Talk - Talk
TTITLE15=Orleans - Still The One
TTITLE16=Talk - Talk
TTITLE17=Player - Baby Come Back
TTITLE18=Talk - Talk
TTITLE19=Captain And Tennille - Do That To Me One More Time
TTITLE20=Talk - Talk
TTITLE21=Pink Floyd - Money (Radio Version)
TTITLE22=Talk - Talk
TTITLE23=Beatles - And I Love Her
TTITLE24=Talk - Talk
EXTD=
EXTT0=
EXTT1=
EXTT2=
EXTT3=
EXTT4=
EXTT5=
EXTT6=
EXTT7=
EXTT8=
EXTT9=
EXTT10=
EXTT11=
EXTT12=
EXTT13=
EXTT14=
EXTT15=
EXTT16=
EXTT17=
EXTT18=
EXTT19=
EXTT20=
EXTT21=
EXTT22=
EXTT23=
EXTT24=
PLAYORDER=
